<mxfile host="app.diagrams.net" modified="2021-01-29T16:00:06.566Z" agent="5.0 (Windows)" etag="xZuAHXN_bTvYbMwI0Zjj" version="14.2.7" type="github">
  <diagram id="R2lEEEUBdFMjLlhIrx00" name="Page-1">
    <mxGraphModel dx="1021" dy="570" grid="1" gridSize="10" guides="1" tooltips="1" connect="1" arrows="1" fold="1" page="1" pageScale="1" pageWidth="850" pageHeight="1100" math="0" shadow="0" extFonts="Permanent Marker^https://fonts.googleapis.com/css?family=Permanent+Marker">
      <root>
        <mxCell id="0" />
        <mxCell id="1" parent="0" />
        <mxCell id="0FTM7adgmJ3_zZZi8vkw-1" value="&lt;div&gt;Table de faits&lt;/div&gt;&lt;div&gt;&lt;br&gt;&lt;/div&gt;&lt;div&gt;Nbre de logements&lt;/div&gt;&lt;div&gt;Nbre de locataires&lt;/div&gt;&lt;div&gt;Nbre de locations&lt;br&gt;&lt;/div&gt;" style="rounded=1;whiteSpace=wrap;html=1;" vertex="1" parent="1">
          <mxGeometry x="400" y="220" width="140" height="100" as="geometry" />
        </mxCell>
        <mxCell id="0FTM7adgmJ3_zZZi8vkw-2" value="Dim_Age" style="rounded=1;whiteSpace=wrap;html=1;" vertex="1" parent="1">
          <mxGeometry x="700" y="210" width="120" height="60" as="geometry" />
        </mxCell>
        <mxCell id="0FTM7adgmJ3_zZZi8vkw-3" value="Dim_Temps" style="rounded=1;whiteSpace=wrap;html=1;" vertex="1" parent="1">
          <mxGeometry x="260" y="440" width="120" height="60" as="geometry" />
        </mxCell>
        <mxCell id="0FTM7adgmJ3_zZZi8vkw-4" value="Dim_TypeLogement" style="rounded=1;whiteSpace=wrap;html=1;" vertex="1" parent="1">
          <mxGeometry x="520" y="400" width="120" height="60" as="geometry" />
        </mxCell>
        <mxCell id="0FTM7adgmJ3_zZZi8vkw-5" value="Dim_Commune" style="rounded=1;whiteSpace=wrap;html=1;" vertex="1" parent="1">
          <mxGeometry x="410" y="90" width="120" height="60" as="geometry" />
        </mxCell>
        <mxCell id="0FTM7adgmJ3_zZZi8vkw-6" value="Dim_Superficie" style="rounded=1;whiteSpace=wrap;html=1;" vertex="1" parent="1">
          <mxGeometry x="140" y="190" width="120" height="60" as="geometry" />
        </mxCell>
        <mxCell id="0FTM7adgmJ3_zZZi8vkw-10" value="" style="endArrow=none;html=1;" edge="1" parent="1" source="0FTM7adgmJ3_zZZi8vkw-6">
          <mxGeometry width="50" height="50" relative="1" as="geometry">
            <mxPoint x="400" y="320" as="sourcePoint" />
            <mxPoint x="400" y="260" as="targetPoint" />
          </mxGeometry>
        </mxCell>
        <mxCell id="0FTM7adgmJ3_zZZi8vkw-11" value="" style="endArrow=none;html=1;exitX=1;exitY=1;exitDx=0;exitDy=0;entryX=0.75;entryY=0;entryDx=0;entryDy=0;" edge="1" parent="1" source="0FTM7adgmJ3_zZZi8vkw-1" target="0FTM7adgmJ3_zZZi8vkw-4">
          <mxGeometry width="50" height="50" relative="1" as="geometry">
            <mxPoint x="530" y="370" as="sourcePoint" />
            <mxPoint x="580" y="320" as="targetPoint" />
          </mxGeometry>
        </mxCell>
        <mxCell id="0FTM7adgmJ3_zZZi8vkw-12" value="" style="endArrow=none;html=1;" edge="1" parent="1" target="0FTM7adgmJ3_zZZi8vkw-1">
          <mxGeometry width="50" height="50" relative="1" as="geometry">
            <mxPoint x="330" y="440" as="sourcePoint" />
            <mxPoint x="380" y="390" as="targetPoint" />
          </mxGeometry>
        </mxCell>
        <mxCell id="0FTM7adgmJ3_zZZi8vkw-13" value="" style="endArrow=none;html=1;entryX=0.429;entryY=-0.02;entryDx=0;entryDy=0;entryPerimeter=0;" edge="1" parent="1" source="0FTM7adgmJ3_zZZi8vkw-5" target="0FTM7adgmJ3_zZZi8vkw-1">
          <mxGeometry width="50" height="50" relative="1" as="geometry">
            <mxPoint x="400" y="320" as="sourcePoint" />
            <mxPoint x="460" y="210" as="targetPoint" />
          </mxGeometry>
        </mxCell>
        <mxCell id="0FTM7adgmJ3_zZZi8vkw-14" value="" style="endArrow=none;html=1;exitX=1;exitY=0.5;exitDx=0;exitDy=0;" edge="1" parent="1" source="0FTM7adgmJ3_zZZi8vkw-1">
          <mxGeometry width="50" height="50" relative="1" as="geometry">
            <mxPoint x="610" y="270" as="sourcePoint" />
            <mxPoint x="690" y="240" as="targetPoint" />
          </mxGeometry>
        </mxCell>
      </root>
    </mxGraphModel>
  </diagram>
</mxfile>
